<svg width="30" height="31" viewBox="0 0 30 31" fill="none" xmlns="http://www.w3.org/2000/svg">
<g clip-path="url(#clip0_1102_88)">
<path fill-rule="evenodd" clip-rule="evenodd" d="M6.37633 0.5H23.6237C27.1307 0.5 30 3.36926 30 6.87633V24.1237C30 27.6307 27.1307 30.5 23.6237 30.5H6.37633C2.86926 30.5 0 27.6307 0 24.1237V6.87633C0 3.36926 2.86926 0.5 6.37633 0.5Z" fill="white"/>
<path d="M15.1005 26.7981C12.8159 26.7981 11.7654 26.5166 10.0202 25.577C8.50815 24.7629 7.20453 23.6733 6.50671 22.1095C4.00636 16.5076 4.76596 8.1294 10.1093 5.34503C12.8226 3.93141 17.1266 3.77606 19.8832 5.17747C22.5273 6.52176 23.8067 8.61898 24.865 11.3098L22.7049 11.9269C21.7073 8.30274 19.3036 6.29486 15.4021 6.29486C13.8602 6.29486 12.461 6.44976 11.2852 7.03268C8.47259 8.42631 7.32009 11.6956 7.20675 15.0071C7.1243 17.4134 7.51321 19.8425 8.58704 21.5901C9.81533 23.5889 12.3677 24.8529 14.7603 24.8529C17.0013 24.8529 18.8045 24.4634 20.1952 23.1588C22.0891 21.3821 22.4838 18.5488 20.0696 16.8214C19.326 23.1677 10.7203 22.8057 10.7203 17.7615C10.7203 16.7141 11.1276 15.8 11.9421 15.0195C13.5597 13.4695 15.9937 13.9275 18.0235 13.8968C17.8095 12.9388 16.995 11.5507 15.4316 11.5507C14.2269 11.5507 13.1888 11.8536 12.6308 12.7865L10.9492 11.6956C11.6614 10.3582 13.0975 9.47992 15.3007 9.47992C17.504 9.47992 19.6607 10.9215 20.0183 13.6555L20.1288 14.4997C21.3742 15.0022 22.2706 15.9396 22.8931 16.8841C24.6432 19.5398 23.6783 22.9464 21.179 25.0643C19.8154 26.2199 17.7889 26.7979 15.1007 26.7979L15.1005 26.7981ZM12.7281 17.7188C12.7281 18.758 13.8306 19.5351 14.898 19.5351C16.0888 19.5351 16.9075 19.1993 17.3539 18.5277C17.8004 17.8561 18.0238 17.0472 18.0238 16.1014C16.8006 15.7905 14.6725 15.5676 13.5446 16.314C13.0135 16.6656 12.7284 17.1134 12.7284 17.7188H12.7281Z" fill="#5C5C7B"/>
</g>
<defs>
<clipPath id="clip0_1102_88">
<rect width="30" height="30" fill="white" transform="translate(0 0.5)"/>
</clipPath>
</defs>
</svg>
